<?xml version="1.0" encoding="UTF-8"?>
<svg version="1.1" xmlns="http://www.w3.org/2000/svg" width="248" height="84">
<path d="M0 0 C1.22493164 -0.01836914 1.22493164 -0.01836914 2.47460938 -0.03710938 C7.88181365 -0.05003496 12.49377644 0.67540327 17.6875 2.1875 C18.3125 4 18.3125 4 18.6875 6.1875 C18.0275 7.1775 17.3675 8.1675 16.6875 9.1875 C15.5325 9.0225 14.3775 8.8575 13.1875 8.6875 C8.63055332 8.19485712 4.08058832 8.00907169 -0.5 7.9375 C-1.51513672 7.9055957 -1.51513672 7.9055957 -2.55078125 7.87304688 C-7.98943072 7.83572281 -12.10764754 9.06139227 -16.0625 12.875 C-17.26209425 15.09424936 -17.8081226 16.89588775 -18.390625 19.33203125 C-18.69484375 20.60433594 -18.9990625 21.87664063 -19.3125 23.1875 C-11.92934838 23.26387444 -4.54629954 23.31623584 2.8371582 23.35229492 C5.34631152 23.36733529 7.85543874 23.38777272 10.36450195 23.41381836 C13.98134825 23.45041014 17.59784542 23.46727448 21.21484375 23.48046875 C22.32770248 23.49595261 23.44056122 23.51143646 24.58714294 23.52738953 C30.96605206 23.52875259 36.9330322 23.19509942 42.6875 20.1875 C43.55246094 19.21554688 44.41742188 18.24359375 45.30859375 17.2421875 C49.86822761 12.16266429 57.3505196 11.64877983 63.75 10.3125 C65.12607841 10.00450742 66.5017356 9.69462653 67.87695312 9.3828125 C78.67808332 6.9880439 78.67808332 6.9880439 83.6875 7.1875 C83.6875 7.8475 83.6875 8.5075 83.6875 9.1875 C79.91823331 10.19347015 76.14684588 11.19124802 72.375 12.1875 C71.30314453 12.47367188 70.23128906 12.75984375 69.12695312 13.0546875 C68.09892578 13.32539063 67.07089844 13.59609375 66.01171875 13.875 C65.06385498 14.12636719 64.11599121 14.37773437 63.1394043 14.63671875 C60.6875 15.1875 60.6875 15.1875 57.6875 15.1875 C57.6875 15.8475 57.6875 16.5075 57.6875 17.1875 C58.80777588 16.91486328 58.80777588 16.91486328 59.95068359 16.63671875 C63.32072223 15.81795839 66.6915951 15.00268615 70.0625 14.1875 C71.238125 13.90132812 72.41375 13.61515625 73.625 13.3203125 C74.74648437 13.04960937 75.86796875 12.77890625 77.0234375 12.5 C78.06032715 12.24863281 79.0972168 11.99726563 80.16552734 11.73828125 C82.6875 11.1875 82.6875 11.1875 84.6875 11.1875 C84.3575 12.1775 84.0275 13.1675 83.6875 14.1875 C81.46264648 15.07885742 81.46264648 15.07885742 78.55859375 15.79296875 C77.52412109 16.05400391 76.48964844 16.31503906 75.42382812 16.58398438 C74.33521484 16.84501953 73.24660156 17.10605469 72.125 17.375 C71.03251953 17.64763672 69.94003906 17.92027344 68.81445312 18.20117188 C66.10809437 18.87480702 63.39933326 19.53631879 60.6875 20.1875 C66.58039036 19.53202731 72.03938182 18.39367599 77.7578125 16.80859375 C80.81660457 16.16012983 83.57017303 16.08112237 86.6875 16.1875 C85.6875 18.1875 85.6875 18.1875 83.60205078 18.96533203 C82.70470215 19.20622559 81.80735352 19.44711914 80.8828125 19.6953125 C79.90699219 19.95957031 78.93117187 20.22382813 77.92578125 20.49609375 C76.89839844 20.76550781 75.87101563 21.03492187 74.8125 21.3125 C73.79285156 21.58964844 72.77320313 21.86679687 71.72265625 22.15234375 C64.11337746 24.1875 64.11337746 24.1875 60.6875 24.1875 C60.6875 24.8475 60.6875 25.5075 60.6875 26.1875 C61.3988208 26.00574219 62.1101416 25.82398437 62.84301758 25.63671875 C66.06108582 24.81662785 69.28051304 24.00200268 72.5 23.1875 C73.61955078 22.90132812 74.73910156 22.61515625 75.89257812 22.3203125 C76.96572266 22.04960937 78.03886719 21.77890625 79.14453125 21.5 C80.13428955 21.24863281 81.12404785 20.99726563 82.14379883 20.73828125 C84.6875 20.1875 84.6875 20.1875 87.6875 20.1875 C87.6875 20.8475 87.6875 21.5075 87.6875 22.1875 C83.52882251 23.62337028 79.36623762 25.04708897 75.19970703 26.45996094 C73.78452518 26.94171122 72.37043962 27.42669508 70.95751953 27.91503906 C68.91983064 28.61868075 66.87840931 29.31038377 64.8359375 30 C63.61052246 30.41894531 62.38510742 30.83789062 61.12255859 31.26953125 C57.26305643 32.30092628 53.5493331 33.16063955 49.87890625 31.2421875 C49.34136719 30.85289063 48.80382812 30.46359375 48.25 30.0625 C43.64141748 27.57560453 39.93913185 28.42591921 34.91845703 29.26416016 C16.82817993 32.20442913 -2.14950381 29.54723849 -20.3125 28.1875 C-20.42207031 28.77015625 -20.53164063 29.3528125 -20.64453125 29.953125 C-26.79726481 61.76725953 -26.79726481 61.76725953 -38.32421875 71.86328125 C-45.97543286 76.95908004 -54.08869905 79.83478428 -63.3125 79.1875 C-67.4094656 77.611744 -70.27850223 76.14844302 -72.3125 72.1875 C-73.50262839 67.26830263 -73.90421174 65.37092348 -71.625 60.8125 C-69.53467837 58.43970248 -68.24660292 57.2353939 -65.3125 56.1875 C-64.9825 56.8475 -64.6525 57.5075 -64.3125 58.1875 C-64.786875 58.909375 -65.26125 59.63125 -65.75 60.375 C-67.7007075 63.8862735 -67.60611651 66.22367709 -67.3125 70.1875 C-66.9825 71.1775 -66.6525 72.1675 -66.3125 73.1875 C-60.05770125 74.69328489 -56.32960987 74.03651473 -50.703125 70.88671875 C-37.37066378 61.41021445 -34.7466981 43.0727059 -31.3125 28.1875 C-33.37904701 28.75632992 -35.44062466 29.34322965 -37.5 29.9375 C-38.64855469 30.26234375 -39.79710937 30.5871875 -40.98046875 30.921875 C-45.7448341 32.73155187 -48.49655995 34.96358992 -51.3125 39.1875 C-51.8963196 42.1024255 -51.8963196 42.1024255 -51.3125 45.1875 C-49.139865 47.76035724 -47.33256162 49.67746919 -44.3125 51.1875 C-44.6425 52.5075 -44.9725 53.8275 -45.3125 55.1875 C-50.35960221 53.3433665 -53.42988007 51.95490989 -56.3125 47.1875 C-57.68530521 43.32648536 -57.45229155 40.86784695 -55.875 37.1875 C-52.23542315 30.64626739 -46.20619549 27.17769427 -39.32421875 24.73046875 C-37.3125 24.1875 -37.3125 24.1875 -35.20703125 23.98828125 C-32.83196751 23.71646345 -31.36157978 23.44609426 -29.3125 22.1875 C-27.68525782 19.26465467 -26.58417027 16.32347717 -25.45703125 13.17578125 C-23.29792966 7.53853648 -19.82074856 3.80391807 -14.3125 1.1875 C-9.58765643 -0.09381351 -4.85830844 0.00378078 0 0 Z " fill="#121212" transform="translate(75.3125,3.8125)"/>
<path d="M0 0 C1.32 0.66 2.64 1.32 4 2 C4.45684283 14.49972742 3.91153488 25.07981158 0 37 C-0.74158998 39.31061316 -1.42425233 41.64258542 -2 44 C-0.74504313 46.17328198 -0.74504313 46.17328198 1 48 C2.35436941 51.57940487 1.99277074 53.02282924 0.8125 56.75 C0.214375 57.8225 -0.38375 58.895 -1 60 C-2.98 60.495 -2.98 60.495 -5 61 C-4.67 57.37 -4.34 53.74 -4 50 C-6.18586587 53.27879881 -7.00208696 56.02646257 -8.0625 59.8125 C-8.57490234 61.61654297 -8.57490234 61.61654297 -9.09765625 63.45703125 C-9.90667738 66.63357742 -10.51867283 69.75972536 -11 73 C-5.4639276 69.60286466 -2.3483793 66.16557888 1.0625 60.6875 C1.701875 59.800625 2.34125 58.91375 3 58 C3.99 58 4.98 58 6 58 C5.64382047 65.12359052 1.39718159 69.60281841 -3.4375 74.4375 C-6.77070791 76.46994385 -9.09249794 77.07104549 -13 77 C-15.4375 74.5625 -15.4375 74.5625 -17 72 C-17.804375 72.825 -18.60875 73.65 -19.4375 74.5 C-22.80090129 77.28295615 -25.50672914 77.73611138 -29.8125 77.49609375 C-33.59937091 76.63728553 -35.37154776 74.82558616 -38 72 C-39.80884399 66.57346803 -39.83684753 61.15606952 -37.5 55.875 C-33.43332114 48.73698325 -27.23855687 44.68441697 -19.78515625 41.62890625 C-15.84881878 40.74005585 -12.01770484 40.87675752 -8 41 C-8.0886537 38.24867829 -8.19175909 35.4999971 -8.3125 32.75 C-8.34811035 31.93184814 -8.3837207 31.11369629 -8.42041016 30.27075195 C-8.69554942 25.32164805 -9.40246013 20.9508982 -10.875 16.1875 C-11.671875 13.34765625 -11.671875 13.34765625 -12 11 C-10.125 8.125 -10.125 8.125 -7 6 C-5.71863287 4.90807524 -4.44790088 3.80356049 -3.1875 2.6875 C-2.12675041 1.7895947 -1.06486855 0.89301656 0 0 Z M-24.875 52.9375 C-28.39838625 58.01532136 -29.68261683 61.74267909 -29 68 C-27.14579161 70.44098818 -27.14579161 70.44098818 -25 72 C-16.21893417 67.86773373 -13.05879359 59.36691847 -9.8828125 50.7578125 C-8.89837546 48.1651469 -8.89837546 48.1651469 -9 46 C-15.22475225 45.22190597 -20.85021373 48.3292388 -24.875 52.9375 Z " fill="#101010" transform="translate(179,1)"/>
<path d="M0 0 C0.99 0 1.98 0 3 0 C2.67 0.7425 2.34 1.485 2 2.25 C0.77217129 5.13883312 0.77217129 5.13883312 1 9 C2.093125 8.34 3.18625 7.68 4.3125 7 C9.44813006 4.4413231 14.36135885 4.09993522 20 5 C23.00197464 6.80118478 24.45166366 7.90332732 26 11 C26.49818321 14.06026832 26.51321349 16.13486869 24.90625 18.84375 C21.51967577 23.09498148 18.29902247 25.41958979 13 27 C9.20740603 27.2528396 6.60105166 27.20035055 3 26 C3.26504773 29.26892205 3.59783451 30.63439501 6.0625 32.875 C9.94748256 34.36286566 13.08157241 34.11844882 17 33 C22.28021093 30.30812776 24.83245068 26.84448719 28 22 C28.99 22.33 29.98 22.66 31 23 C28.73760687 31.10690873 24.66985759 34.71392926 17.515625 38.76171875 C12.55052687 41.20571891 8.69832115 41.3941176 3.4375 40 C-1.37565531 38.15385824 -4.73107819 35.7103852 -7 31 C-7.66581564 27.24503972 -7.40730482 23.77726728 -7 20 C-6.83757812 18.32357422 -6.83757812 18.32357422 -6.671875 16.61328125 C-5.83820895 9.84360415 -4.92032548 4.92032548 0 0 Z M5.0625 14.375 C2.67274276 16.81424678 2.67274276 16.81424678 3.1875 19.8125 C3.455625 20.534375 3.72375 21.25625 4 22 C9.78598858 23.32595572 13.74388657 22.85838079 19 20 C21.18018684 18.34628384 21.18018684 18.34628384 22 16 C21.77426109 12.80764728 21.77426109 12.80764728 21 10 C13.87011258 8.43142477 10.62500687 9.87765402 5.0625 14.375 Z " fill="#131313" transform="translate(216,35)"/>
<path d="M0 0 C1 1 1 1 1.3125 4 C1.16462137 12.03473885 -3.84640555 19.17364568 -9 25 C-13.80891555 29.5924004 -17.06634812 31.35292176 -23.67578125 31.2890625 C-27.21479905 30.84891575 -29.33025605 29.27904971 -32 27 C-34.50312938 23.24530593 -34.60027968 20.34228288 -34 16 C-31.95085051 8.88986385 -26.8369929 4.25805067 -21 0 C-14.01247007 -3.28824938 -7.19205136 -2.07433903 0 0 Z M-4 2 C-8.69061926 6.46110884 -10.66558274 9.75613543 -10.9921875 16.27734375 C-10.99476562 16.84582031 -10.99734375 17.41429687 -11 18 C-10.01 18.33 -9.02 18.66 -8 19 C-7.17988688 17.44148245 -6.36923787 15.87798284 -5.5625 14.3125 C-5.11003906 13.44238281 -4.65757813 12.57226562 -4.19140625 11.67578125 C-3.0223648 9.05022915 -2.26808727 6.86122232 -2 4 C-2.66 3.34 -3.32 2.68 -4 2 Z M-19 7 C-23.55379059 12.50513959 -25.17747088 17.8631354 -25 25 C-24.67 25.99 -24.34 26.98 -24 28 C-18.60713425 27.56857074 -15.19513682 26.47889394 -11 23 C-11 22.01 -11 21.02 -11 20 C-11.639375 19.814375 -12.27875 19.62875 -12.9375 19.4375 C-15 18 -15 18 -16 14.75 C-16 10.218517 -14.70973038 8.5308608 -12 5 C-12 4.34 -12 3.68 -12 3 C-15.28986519 3 -16.63249316 4.79766806 -19 7 Z " fill="#161616" transform="translate(89,45)"/>
<path d="M0 0 C2 2 2 2 2.15234375 3.84765625 C1.14864881 14.1948386 -4.53775407 21.98281844 -12 29 C-16.169614 31.61428179 -20.21290722 31.5566387 -25 31 C-28.66143529 29.40807162 -31.16390091 27.57556139 -33 24 C-33.85192336 16.69779973 -31.98112735 11.77357892 -27.45703125 6.046875 C-19.50042692 -2.6198153 -10.87309647 -3.26192894 0 0 Z M-17.1796875 6.03125 C-21.41526279 10.61221555 -24.27191191 16.20017253 -24.375 22.5 C-24.22266514 25.84582176 -24.22266514 25.84582176 -23 28 C-16.87647862 27.63258872 -14.21348564 26.21348564 -10 22 C-10 21.34 -10 20.68 -10 20 C-12.46326712 18.3553326 -12.46326712 18.3553326 -15 17 C-14.7242265 10.7950962 -13.89359206 6.89839001 -10 2 C-13.20535582 2 -14.85122831 3.9658385 -17.1796875 6.03125 Z M-5.4375 4.25 C-8.95147876 8.02109916 -9.95186508 9.55595237 -10.125 14.75 C-10.08375 15.8225 -10.0425 16.895 -10 18 C-9.01 18.33 -8.02 18.66 -7 19 C-3.72408048 13.18524285 -1.2657834 8.75479274 -2 2 C-3.4304017 1.88695332 -3.4304017 1.88695332 -5.4375 4.25 Z " fill="#141414" transform="translate(132,45)"/>
<path d="M0 0 C3.0625 0.1875 3.0625 0.1875 5.0625 2.1875 C5.94973498 9.66562341 3.76502599 15.80361193 1.25390625 22.734375 C0.27365743 25.57548961 -0.44670159 28.2314268 -0.9375 31.1875 C4.2336115 26.64318989 7.50913108 21.03468632 11.0625 15.1875 C12.0525 15.5175 13.0425 15.8475 14.0625 16.1875 C12.20888233 23.65493119 8.79473554 31.18702189 2.06640625 35.453125 C-1.14331275 36.62939629 -3.67946722 35.97184122 -6.9375 35.1875 C-9.67813616 31.07654575 -9.53940629 28.01725408 -8.9375 23.1875 C-7.86229409 19.40574127 -6.45754582 15.81054828 -4.9375 12.1875 C-4.62941406 11.44371094 -4.32132813 10.69992188 -4.00390625 9.93359375 C-3.33274391 8.34399874 -2.63828262 6.76426089 -1.9375 5.1875 C-2.9275 5.1875 -3.9175 5.1875 -4.9375 5.1875 C-3.82120474 0.24390669 -3.82120474 0.24390669 0 0 Z " fill="#121212" transform="translate(193.9375,40.8125)"/>
<path d="M0 0 C-1.67102571 3.75980785 -3.2848209 5.34030968 -6.9375 7 C-11.62215012 9.14032638 -13.85389254 11.82239582 -16.25 16.375 C-17.21192332 19.74173164 -17.3225599 22.51635309 -17 26 C-15.16884793 28.61593153 -14.09031634 28.96989455 -11 30 C-11 30.66 -11 31.32 -11 32 C-11.99 32.495 -11.99 32.495 -13 33 C-13 33.66 -13 34.32 -13 35 C-20.76785714 35.66964286 -20.76785714 35.66964286 -24.4375 32.6875 C-28.15351027 28.79022094 -28.36136101 25.55315833 -28.26953125 20.40234375 C-27.475026 13.3208839 -23.38429219 8.81170952 -18 4.4765625 C-11.93244765 -0.00299763 -7.33992145 -0.39165589 0 0 Z " fill="#0F0F0F" transform="translate(168,43)"/>
<path d="M0 0 C1.32 0.33 2.64 0.66 4 1 C3.32418477 7.08233706 2.26361972 13.01314152 1 19 C6.5360724 15.60286466 9.6516207 12.16557888 13.0625 6.6875 C13.701875 5.800625 14.34125 4.91375 15 4 C15.99 4 16.98 4 18 4 C17.64382047 11.12359052 13.39718159 15.60281841 8.5625 20.4375 C5.22929209 22.46994385 2.90750206 23.07104549 -1 23 C-3.4375 20.5625 -3.4375 20.5625 -5 18 C-6.98 19.65 -8.96 21.3 -11 23 C-11.66 22.01 -12.32 21.02 -13 20 C-12.01 20 -11.02 20 -10 20 C-10 19.34 -10 18.68 -10 18 C-10.66 17.67 -11.32 17.34 -12 17 C-11.13375 16.4225 -10.2675 15.845 -9.375 15.25 C-4.58832045 11.34087837 -2.48045711 5.5150589 0 0 Z " fill="#151515" transform="translate(167,55)"/>
<path d="M0 0 C2 2 2 2 2.15234375 3.84765625 C1.16541002 14.02204577 -4.43046844 22.25815082 -12 29 C-14.24609375 29.75 -14.24609375 29.75 -16 30 C-16.66 29.01 -17.32 28.02 -18 27 C-16.576875 26.1028125 -16.576875 26.1028125 -15.125 25.1875 C-11.86035803 23.18437474 -11.86035803 23.18437474 -10 20 C-10.61875 19.87625 -11.2375 19.7525 -11.875 19.625 C-14 19 -14 19 -16 17 C-16.63089419 10.6647708 -14.35313075 6.33655503 -10.47265625 1.53125 C-7.1907771 -1.88120789 -4.39274642 -0.8628609 0 0 Z M-5.4375 4.25 C-8.95147876 8.02109916 -9.95186508 9.55595237 -10.125 14.75 C-10.08375 15.8225 -10.0425 16.895 -10 18 C-9.01 18.33 -8.02 18.66 -7 19 C-3.72408048 13.18524285 -1.2657834 8.75479274 -2 2 C-3.4304017 1.88695332 -3.4304017 1.88695332 -5.4375 4.25 Z " fill="#232323" transform="translate(132,45)"/>
<path d="M0 0 C1 1 1 1 1.3125 4 C1.16458298 12.03682469 -3.85154567 19.16684074 -9 25 C-11.875 27.5 -11.875 27.5 -14 29 C-14.99 28.01 -15.98 27.02 -17 26 C-13.25 23 -13.25 23 -11 23 C-11 22.01 -11 21.02 -11 20 C-13.475 19.01 -13.475 19.01 -16 18 C-17.3628792 13.9113624 -17.52458679 12.06214412 -15.578125 8.12109375 C-10.5637056 0.17468946 -9.20430414 -1.46100066 0 0 Z M-4 2 C-8.69061926 6.46110884 -10.66558274 9.75613543 -10.9921875 16.27734375 C-10.99476562 16.84582031 -10.99734375 17.41429687 -11 18 C-10.01 18.33 -9.02 18.66 -8 19 C-7.17988688 17.44148245 -6.36923787 15.87798284 -5.5625 14.3125 C-5.11003906 13.44238281 -4.65757813 12.57226562 -4.19140625 11.67578125 C-3.0223648 9.05022915 -2.26808727 6.86122232 -2 4 C-2.66 3.34 -3.32 2.68 -4 2 Z " fill="#252525" transform="translate(89,45)"/>
<path d="M0 0 C0.33 1.32 0.66 2.64 1 4 C0.19175781 4.24234375 -0.61648437 4.4846875 -1.44921875 4.734375 C-8.52920905 6.95487859 -13.749372 8.624058 -18 15 C-18.5838196 17.9149255 -18.5838196 17.9149255 -18 21 C-15.827365 23.57285724 -14.02006162 25.48996919 -11 27 C-11.33 28.32 -11.66 29.64 -12 31 C-17.04710221 29.1558665 -20.11738007 27.76740989 -23 23 C-24.37280521 19.13898536 -24.13979155 16.68034695 -22.5625 13 C-18.09753715 4.97534169 -9.08589629 0 0 0 Z " fill="#1C1C1C" transform="translate(42,28)"/>
<path d="M0 0 C0.99 0.33 1.98 0.66 3 1 C2.505 1.845625 2.01 2.69125 1.5 3.5625 C-0.57522753 8.31822976 -0.63547495 12.09357516 1 17 C7.0293782 18.29200961 10.04413164 18.01709956 15.3359375 14.8125 C15.88507812 14.544375 16.43421875 14.27625 17 14 C17.66 14.33 18.32 14.66 19 15 C18.67 15.99 18.34 16.98 18 18 C18.33 18.99 18.66 19.98 19 21 C12.63107644 22.78776802 7.16297491 24.21652881 0.75 21.75 C-3.64226198 18.95492419 -4.70255724 17.22943009 -5.9375 12.125 C-6.27404463 8.65600151 -5.9527878 7.91208763 -4.1875 4.625 C-2 2 -2 2 0 0 Z " fill="#222222" transform="translate(8,60)"/>
<path d="M0 0 C2.875 0.25 2.875 0.25 6 1 C7.90237344 3.84096166 8.27285926 6.18504445 8.25 9.5625 C8.25515625 10.32691406 8.2603125 11.09132813 8.265625 11.87890625 C8 14 8 14 6 17 C2.5 17.3125 2.5 17.3125 -1 17 C-3.49005677 14.50994323 -3.29703766 13.62529268 -3.3125 10.1875 C-3.24575242 5.99453833 -2.68869879 3.36087349 0 0 Z " fill="#101010" transform="translate(193,23)"/>
<path d="M0 0 C0.99 0 1.98 0 3 0 C2.64382047 7.12359052 -1.60281841 11.60281841 -6.4375 16.4375 C-9.61626471 18.37577117 -12.31954002 18.71133647 -16 19 C-15.67 16.36 -15.34 13.72 -15 11 C-14.67 12.32 -14.34 13.64 -14 15 C-8.4639276 11.60286466 -5.3483793 8.16557888 -1.9375 2.6875 C-1.298125 1.800625 -0.65875 0.91375 0 0 Z " fill="#242424" transform="translate(182,59)"/>
<path d="M0 0 C3.16115776 1.36983503 3.9927092 1.9890638 6 5 C6.57539874 8.16469306 6.55904943 10.12875414 4.796875 12.875 C2.16218269 16.06856643 -0.10112023 18.43430812 -4 20 C-4.99 20 -5.98 20 -7 20 C-7 19.01 -7 18.02 -7 17 C-7.66 16.67 -8.32 16.34 -9 16 C-8.44570312 15.81824219 -7.89140625 15.63648438 -7.3203125 15.44921875 C-6.23363281 15.07216797 -6.23363281 15.07216797 -5.125 14.6875 C-4.40570313 14.44386719 -3.68640625 14.20023438 -2.9453125 13.94921875 C-0.66005095 13.03664453 -0.66005095 13.03664453 1 10 C1.16699232 6.87478167 1.16699232 6.87478167 1 4 C-0.65 3.67 -2.3 3.34 -4 3 C-2.68 2.01 -1.36 1.02 0 0 Z " fill="#181818" transform="translate(236,41)"/>
<path d="M0 0 C0.99 0.33 1.98 0.66 3 1 C1.15561073 8.43025393 -2.25338099 16.11586388 -9.05078125 20.24609375 C-11.45554578 21.17619306 -13.44436283 21.14197984 -16 21 C-15.195625 20.2265625 -15.195625 20.2265625 -14.375 19.4375 C-8.54509737 13.45417887 -4.12994328 7.2786589 0 0 Z " fill="#1D1D1D" transform="translate(205,56)"/>
<path d="M0 0 C-0.433125 0.8353125 -0.433125 0.8353125 -0.875 1.6875 C-3.02931462 6.11581338 -4.31671019 10.10308969 -5 15 C-6.32 15.33 -7.64 15.66 -9 16 C-11 13 -11 13 -10.875 9.6875 C-9.92134891 5.66854183 -8.53908026 3.23155669 -6 0 C-3.50907189 -1.24546405 -2.58919267 -0.7767578 0 0 Z " fill="#181818" transform="translate(83,48)"/>
<path d="M0 0 C0 0.66 0 1.32 0 2 C-3.74585098 3.03649501 -7.49721009 4.0514437 -11.25 5.0625 C-12.84521484 5.50432617 -12.84521484 5.50432617 -14.47265625 5.95507812 C-15.49746094 6.22900391 -16.52226562 6.50292969 -17.578125 6.78515625 C-18.99206543 7.17006226 -18.99206543 7.17006226 -20.43457031 7.56274414 C-23.03280387 8.00559114 -24.53607513 7.85426202 -27 7 C-27 6.34 -27 5.68 -27 5 C-23.43955555 4.15771542 -19.87634656 3.32776097 -16.3125 2.5 C-14.80139648 2.14228516 -14.80139648 2.14228516 -13.25976562 1.77734375 C-12.28330078 1.55175781 -11.30683594 1.32617188 -10.30078125 1.09375 C-9.40528564 0.88427734 -8.50979004 0.67480469 -7.5871582 0.45898438 C-5.00030935 0.00005488 -2.62111026 -0.08261971 0 0 Z " fill="#272727" transform="translate(159,11)"/>
<path d="M0 0 C-1 2 -1 2 -3.05371094 2.80957031 C-5.94833073 3.63946677 -8.84535349 4.45581817 -11.75 5.25 C-12.75289062 5.54390625 -13.75578125 5.8378125 -14.7890625 6.140625 C-15.76101562 6.40875 -16.73296875 6.676875 -17.734375 6.953125 C-18.62350586 7.20223633 -19.51263672 7.45134766 -20.42871094 7.70800781 C-23.51364934 8.05832934 -25.2448043 7.35219006 -28 6 C-27.67 5.34 -27.34 4.68 -27 4 C-24.91656682 3.7609175 -22.83153452 3.53179371 -20.7421875 3.3515625 C-16.68750176 2.831731 -12.82570724 1.72098101 -8.89453125 0.62109375 C-5.84841828 -0.03252563 -3.10595017 -0.10583238 0 0 Z " fill="#3D3D3D" transform="translate(162,20)"/>
<path d="M0 0 C0.99 0 1.98 0 3 0 C4.58684701 4.09239492 5.49585878 6.68850378 3.875 10.875 C2 14 2 14 -0.1171875 14.6953125 C-0.73851562 14.79585937 -1.35984375 14.89640625 -2 15 C-1.85816304 13.24967156 -1.71136571 11.49974466 -1.5625 9.75 C-1.48128906 8.77546875 -1.40007812 7.8009375 -1.31640625 6.796875 C-1.04925416 4.43538247 -0.64628032 2.28098935 0 0 Z " fill="#2C2C2C" transform="translate(176,47)"/>
<path d="M0 0 C0.66 0.33 1.32 0.66 2 1 C1.40364189 4.57814867 0.000066 6.54422861 -2.375 9.25 C-2.98085937 9.95640625 -3.58671875 10.6628125 -4.2109375 11.390625 C-6 13 -6 13 -9 13 C-9.66 12.34 -10.32 11.68 -11 11 C-7.25 8 -7.25 8 -5 8 C-5 7.01 -5 6.02 -5 5 C-5.66 5 -6.32 5 -7 5 C-7 4.34 -7 3.68 -7 3 C-5.35 3.33 -3.7 3.66 -2 4 C-1.34 2.68 -0.68 1.36 0 0 Z " fill="#1D1D1D" transform="translate(83,60)"/>
<path d="M0 0 C-0.33 0.99 -0.66 1.98 -1 3 C-2.71826172 3.79956055 -2.71826172 3.79956055 -4.9296875 4.38671875 C-5.72503906 4.60263672 -6.52039063 4.81855469 -7.33984375 5.04101562 C-8.17644531 5.25435547 -9.01304687 5.46769531 -9.875 5.6875 C-10.70386719 5.91244141 -11.53273437 6.13738281 -12.38671875 6.36914062 C-15.70962039 7.25220576 -18.54482494 8 -22 8 C-22 7.34 -22 6.68 -22 6 C-22.66 5.67 -23.32 5.34 -24 5 C-20.37579876 4.1631665 -16.75051363 3.33112766 -13.125 2.5 C-11.57619141 2.14228516 -11.57619141 2.14228516 -9.99609375 1.77734375 C-9.00996094 1.55175781 -8.02382812 1.32617188 -7.0078125 1.09375 C-5.64100342 0.77954102 -5.64100342 0.77954102 -4.24658203 0.45898438 C-2 0 -2 0 0 0 Z " fill="#393939" transform="translate(160,15)"/>
<path d="M0 0 C0.66 0.33 1.32 0.66 2 1 C1.40075776 5.19469571 0.42500059 9.00999834 -1 13 C-2.65 13 -4.3 13 -6 13 C-6.46557346 9.81858133 -6.50963377 7.74656877 -4.6640625 5.04296875 C-3.15741976 3.3064392 -1.62063536 1.630282 0 0 Z " fill="#0F0F0F" transform="translate(122,49)"/>
<path d="M0 0 C-0.33 1.98 -0.66 3.96 -1 6 C-1.66 5.01 -2.32 4.02 -3 3 C-4.65 4.32 -6.3 5.64 -8 7 C-8.66 6.34 -9.32 5.68 -10 5 C-11.65 6.65 -13.3 8.3 -15 10 C-11.18651652 1.73745245 -9.23614249 -1.53935708 0 0 Z " fill="#2E2E2E" transform="translate(132,45)"/>
<path d="M0 0 C0 0.66 0 1.32 0 2 C-2.22260167 2.89625886 -4.45025334 3.76675553 -6.6875 4.625 C-7.31333984 4.88023438 -7.93917969 5.13546875 -8.58398438 5.3984375 C-11.81298703 6.61565316 -13.59611045 7.11631166 -16.95703125 6.1484375 C-17.63121094 5.76945312 -18.30539063 5.39046875 -19 5 C-19 4.67 -19 4.34 -19 4 C-16.39688008 3.32900016 -13.79264602 2.66304662 -11.1875 2 C-10.44951172 1.80921875 -9.71152344 1.6184375 -8.95117188 1.421875 C-5.89464659 0.64737086 -3.16626522 0 0 0 Z " fill="#323232" transform="translate(163,24)"/>
<path d="M0 0 C0 3.57811631 -0.86465142 4.26675381 -3 7 C-3.33 7.99 -3.66 8.98 -4 10 C-6.31 10.33 -8.62 10.66 -11 11 C-10.67 8.36 -10.34 5.72 -10 3 C-9.67 4.32 -9.34 5.64 -9 7 C-4.17078237 3.89996438 -4.17078237 3.89996438 0 0 Z " fill="#262626" transform="translate(177,67)"/>
<path d="M0 0 C1.49739583 1.26953125 2.99479167 2.5390625 4.4921875 3.80859375 C6.00594079 5.0878152 6.00594079 5.0878152 8 6 C7.67 7.32 7.34 8.64 7 10 C0.35384615 7.53846154 0.35384615 7.53846154 -1.4375 4.8125 C-1.623125 4.214375 -1.80875 3.61625 -2 3 C-1.34 3 -0.68 3 0 3 C0 2.01 0 1.02 0 0 Z " fill="#282828" transform="translate(23,49)"/>
<path d="M0 0 C0.99 0.33 1.98 0.66 3 1 C1.72278474 5.99275057 -0.17330957 8.57611908 -4 12 C-4.8125 9.9375 -4.8125 9.9375 -5 7 C-3.58973707 4.45310725 -1.86023965 2.23357494 0 0 Z " fill="#1F1F1F" transform="translate(244,57)"/>
<path d="M0 0 C0.33 0.99 0.66 1.98 1 3 C-1.64 5.31 -4.28 7.62 -7 10 C-8.32 9.34 -9.64 8.68 -11 8 C-7.8002138 5.34874858 -4.58720833 3.09253819 -1 1 C-0.67 0.67 -0.34 0.34 0 0 Z " fill="#1F1F1F" transform="translate(125,65)"/>
<path d="M0 0 C0 0.66 0 1.32 0 2 C-1.93117554 2.58384377 -3.87029395 3.14147054 -5.8125 3.6875 C-6.89144531 4.00074219 -7.97039062 4.31398438 -9.08203125 4.63671875 C-12 5 -12 5 -13.88671875 3.58203125 C-14.43779297 2.79892578 -14.43779297 2.79892578 -15 2 C-13.43883181 1.66048381 -11.87598662 1.32867456 -10.3125 1 C-9.44238281 0.814375 -8.57226562 0.62875 -7.67578125 0.4375 C-5.06287036 0.01027953 -2.64186962 -0.07616201 0 0 Z " fill="#404040" transform="translate(159,11)"/>
<path d="M0 0 C0.99 0 1.98 0 3 0 C3 1.65 3 3.3 3 5 C2.67 4.01 2.34 3.02 2 2 C1.34 2 0.68 2 0 2 C0 1.34 0 0.68 0 0 Z M0 5 C0.99 5.33 1.98 5.66 3 6 C2.34 7.32 1.68 8.64 1 10 C0.01 10 -0.98 10 -2 10 C-2.66 9.34 -3.32 8.68 -4 8 C-2.1875 6.4375 -2.1875 6.4375 0 5 Z " fill="#2A2A2A" transform="translate(76,63)"/>
<path d="M0 0 C0.99 0 1.98 0 3 0 C3.66 2.31 4.32 4.62 5 7 C4.01 7.33 3.02 7.66 2 8 C0.4375 6.25 0.4375 6.25 -1 4 C-0.6875 1.75 -0.6875 1.75 0 0 Z " fill="#1F1F1F" transform="translate(176,47)"/>
<path d="M0 0 C-0.99 1.32 -1.98 2.64 -3 4 C-5.92879371 3.37240135 -8.36095629 2.41377341 -11 1 C-6.8204355 -1.78637633 -4.85331323 -0.79562512 0 0 Z " fill="#353535" transform="translate(89,45)"/>
<path d="M0 0 C0.66 0.33 1.32 0.66 2 1 C1.505 1.33 1.01 1.66 0.5 2 C-1.88179561 5.17572747 -1.19168226 8.10246066 -1 12 C-1.99 11.67 -2.98 11.34 -4 11 C-4.36630156 7.06225823 -4.30233203 5.43460229 -2 2.125 C-1.34 1.42375 -0.68 0.7225 0 0 Z " fill="#0D0D0D" transform="translate(7,61)"/>
<path d="M0 0 C-0.33 0.66 -0.66 1.32 -1 2 C-0.34 2.33 0.32 2.66 1 3 C-1.64738916 4.4606285 -2.89448334 5 -6 5 C-6 4.01 -6 3.02 -6 2 C-6.66 1.67 -7.32 1.34 -8 1 C-2.25 -1.125 -2.25 -1.125 0 0 Z " fill="#2A2A2A" transform="translate(235,56)"/>
<path d="M0 0 C0.33 1.32 0.66 2.64 1 4 C-1.31 4.33 -3.62 4.66 -6 5 C-6.33 3.68 -6.66 2.36 -7 1 C-4 0 -4 0 0 0 Z " fill="#272727" transform="translate(42,28)"/>
<path d="M0 0 C2.125 0.375 2.125 0.375 4 1 C3.34 1 2.68 1 2 1 C2 2.32 2 3.64 2 5 C-0.64 5.33 -3.28 5.66 -6 6 C-4 4 -2 2 0 0 Z " fill="#272727" transform="translate(195,71)"/>
<path d="M0 0 C0.66 0.33 1.32 0.66 2 1 C0.98823563 4.40320742 0.35156418 5.75725331 -2.625 7.8125 C-3.40875 8.204375 -4.1925 8.59625 -5 9 C-5 4.61031544 -2.87194899 3.23094261 0 0 Z " fill="#131313" transform="translate(179,66)"/>
<path d="M0 0 C0.66 0.33 1.32 0.66 2 1 C1.75 3.375 1.75 3.375 1 6 C-1.0625 7.3125 -1.0625 7.3125 -3 8 C-3.33 7.01 -3.66 6.02 -4 5 C-3.01 5 -2.02 5 -1 5 C-1 4.34 -1 3.68 -1 3 C-1.66 2.67 -2.32 2.34 -3 2 C-2.01 1.34 -1.02 0.68 0 0 Z " fill="#272727" transform="translate(158,70)"/>
<path d="M0 0 C0.99 0.33 1.98 0.66 3 1 C2.525625 1.886875 2.05125 2.77375 1.5625 3.6875 C0.20262851 6.57042756 -0.54060386 8.87610623 -1 12 C-1.33 12 -1.66 12 -2 12 C-2.33 9.69 -2.66 7.38 -3 5 C-2.01 4.67 -1.02 4.34 0 4 C0 2.68 0 1.36 0 0 Z " fill="#3F3F3F" transform="translate(8,60)"/>
<path d="M0 0 C0.33 0 0.66 0 1 0 C1.12375 0.78375 1.2475 1.5675 1.375 2.375 C1.79117993 5.14057822 1.79117993 5.14057822 4 7 C3.34 7 2.68 7 2 7 C1.67 7.66 1.34 8.32 1 9 C1 8.34 1 7.68 1 7 C0.360625 6.87625 -0.27875 6.7525 -0.9375 6.625 C-1.618125 6.41875 -2.29875 6.2125 -3 6 C-3.33 5.34 -3.66 4.68 -4 4 C-2.68 4 -1.36 4 0 4 C0 2.68 0 1.36 0 0 Z " fill="#3D3D3D" transform="translate(121,58)"/>
<path d="M0 0 C0.33 0.66 0.66 1.32 1 2 C1.66 2 2.32 2 3 2 C2.34 3.32 1.68 4.64 1 6 C0.34 5.67 -0.32 5.34 -1 5 C-0.67 3.35 -0.34 1.7 0 0 Z M-3 5 C-2.01 5.495 -2.01 5.495 -1 6 C-1.99 6.495 -1.99 6.495 -3 7 C-3 6.34 -3 5.68 -3 5 Z M-5 7 C-4.34 7.33 -3.68 7.66 -3 8 C-3.99 8 -4.98 8 -6 8 C-5.67 7.67 -5.34 7.34 -5 7 Z " fill="#2B2B2B" transform="translate(126,60)"/>
<path d="M0 0 C1.98 0 3.96 0 6 0 C6 0.99 6 1.98 6 3 C4.02 3.33 2.04 3.66 0 4 C0 2.68 0 1.36 0 0 Z " fill="#222222" transform="translate(140,29)"/>
<path d="M0 0 C0 0.66 0 1.32 0 2 C-3.78187881 3.83691257 -5.94568308 4.15837626 -10 3 C-6.41600853 0.61067235 -4.26804999 0 0 0 Z " fill="#424242" transform="translate(163,24)"/>
<path d="M0 0 C-0.33 0.66 -0.66 1.32 -1 2 C-3.06640625 2.4140625 -3.06640625 2.4140625 -5.5625 2.625 C-6.38878906 2.69976563 -7.21507812 2.77453125 -8.06640625 2.8515625 C-9.02353516 2.92503906 -9.02353516 2.92503906 -10 3 C-8.0130571 -0.97388579 -3.91761109 -0.08705802 0 0 Z " fill="#393939" transform="translate(162,20)"/>
<path d="M0 0 C0.33 0.99 0.66 1.98 1 3 C1.66 3 2.32 3 3 3 C2.67 3.99 2.34 4.98 2 6 C0.02 6.33 -1.96 6.66 -4 7 C-2.68 4.69 -1.36 2.38 0 0 Z " fill="#2D2D2D" transform="translate(202,61)"/>
<path d="M0 0 C0.99 0.33 1.98 0.66 3 1 C2.34 2.98 1.68 4.96 1 7 C0.01 5.68 -0.98 4.36 -2 3 C-1.34 2.01 -0.68 1.02 0 0 Z " fill="#262626" transform="translate(244,57)"/>
<path d="M0 0 C2.97 0 5.94 0 9 0 C8.67 0.66 8.34 1.32 8 2 C4.9375 2.625 4.9375 2.625 2 3 C2 2.34 2 1.68 2 1 C1.34 0.67 0.68 0.34 0 0 Z " fill="#292929" transform="translate(136,20)"/>
<path d="M0 0 C1.125 3.75 1.125 3.75 0 6 C-0.99 6 -1.98 6 -3 6 C-3 4.68 -3 3.36 -3 2 C-2.01 1.34 -1.02 0.68 0 0 Z " fill="#161616" transform="translate(130,56)"/>
</svg>
